<svg xmlns="http://www.w3.org/2000/svg" width="256" height="124" fill="none" viewBox="0 0 256 124">
<!-- SVG created with Arrow, by QuiverAI (https://quiver.ai) -->
  <path d="m255.6 0.11h-255.2v123h255.2v-123z" fill="#FEFFFE"/>
  <path d="m0 0h255.8v123.4h-255.8v-123.4z" fill="#FEFFFE" fill-opacity=".01"/>
  <path d="m20.06 7.91-3.79 22.01h5.42l1.56-8.41h9.51l0.82-4.05h-9.66l0.87-5.09h11.38l0.89-4.46h-17z" fill="#0A0B09"/>
  <path d="m48.05 7.91-13.14 22.01h5.92l2.49-4.25h9.04l1.12 4.25h5.88l-5.5-22.01h-5.81zm1.63 5.37 1.85 8.23h-6.03l4.18-8.23z" fill="#0A0B09"/>
  <path d="m67.36 7.91-3.65 22.01h9.51c8.53 0 13.71-4.94 13.71-11.99 0-6.24-4-10.02-10.82-10.02h-8.75zm4.63 4.46h3.54c4.28 0 5.88 2.26 5.88 5.46 0 4.95-3.2 8.18-7.76 8.18h-3.94l2.28-13.64z" fill="#0A0B09"/>
  <path d="m94.37 7.91-3.36 22.01h16.1l0.71-4.46h-11.01l0.7-4.53h9.6l0.71-3.85h-9.6l0.7-4.71h10.57l0.82-4.46h-15.94z" fill="#0A0B09"/>
  <path d="m44.02 36.27h1.06c15.2 0 23.98 3.79 23.61 16.14-0.1 3.37-0.55 6.18-1.25 10.7l-4.73 32.39c-2.29 14.67-13.98 20.59-27.99 20.59h-7.12c-13.51 0-21.42-4.81-21.19-16.01 0.06-2.62 0.37-5.22 0.91-8.68l4.77-32.78c2.44-15.71 12.69-22.35 27.63-22.35h4.3zm-1.91 15.34c-6.02 0-9 1.67-10 7.6l-6.17 35.88c-0.16 0.94-0.25 1.79-0.25 2.49 0 3.46 2.22 3.93 7.69 3.93 5.79 0 8.41-1.25 9.35-7.25l5.7-35.44c0.16-1.03 0.24-1.97 0.24-2.77 0-3.39-1.91-4.44-6.56-4.44z" fill="url(#paint0_linear_1263_526)"/>
  <path d="m78.76 36.73h32.7c13.35 0 19.61 5.48 19.3 15.04-0.11 3.29-0.65 6.66-1.42 11.46l-4.97 29.73c-2.55 14.67-12.09 22.11-27.1 22.11h-30.63l12.12-78.34zm17.05 15.7-7.19 47.4h7.12c6.34 0 9.4-2.48 10.42-9.64l4.05-30.05c0.15-1.11 0.23-2.15 0.23-3.02 0-3.64-1.83-4.69-6.19-4.69h-8.44z" fill="url(#paint1_linear_1263_526)"/>
  <path d="m140 36.73h29.72c14.94 0 21.51 5.48 21.2 15.04-0.11 3.29-0.74 6.85-1.51 11.93l-4.16 25.74c-2.55 15.33-11.07 25.39-26.8 25.39l-30.32 0.03 11.87-78.13zm16.38 15.39-7.27 47.71h7.12c6.34 0 9.4-2.48 10.42-9.64l4.81-30.51c0.86-5.56-1.05-7.56-6.1-7.56h-8.98z" fill="url(#paint2_linear_1263_526)"/>
  <path d="m248.9 60.72h-16.74l0.86-5.46c0.69-4.6-1.77-5.31-7.24-5.31-5.94 0-10.38 1.82-10.38 9.18 0 4.92 2.45 6.66 7.65 8.63l10.58 3.94c7.99 3.15 12.12 7.21 12.12 14.21 0 2.05-0.31 4.45-0.85 7.21-3.28 14.43-10.4 22.19-30.2 22.19h-1.25c-14.24 0-22.5-4.9-22.27-14.69 0.05-2.21 0.43-4.81 1.12-9.61h17.52l-0.7 4.6c-0.77 5.01 1.22 5.95 7.32 5.95 6.76 0 9.74-1.97 9.74-8.52 0-3.86-2.44-6.26-7.41-8l-10.11-3.94c-7.91-3.15-12.35-7.87-12.35-15.39 0-1.5 0.31-4.1 1-7.87 2.63-13.75 10.81-21.57 27.86-21.57h2.63c14.4 0 22.31 5.31 22.08 13.84-0.08 2.86-0.47 6.66-0.98 10.61z" fill="url(#paint2_linear_1263_526)"/>
  <defs>
    <linearGradient id="paint0_linear_1263_526" x1="6.396" x2="249.9" y1="76.18" y2="76.18" gradientUnits="userSpaceOnUse">
      <stop offset="0"/>
      <stop stop-color="#0A0B09" offset=".5052"/>
      <stop stop-color="#D2D2D2" offset=".9948"/>
    </linearGradient>
    <linearGradient id="paint1_linear_1263_526" x1="6.396" x2="249.9" y1="75.9" y2="75.9" gradientUnits="userSpaceOnUse">
      <stop offset="0"/>
      <stop stop-color="#0A0B09" offset=".5052"/>
      <stop stop-color="#D2D2D2" offset=".9948"/>
    </linearGradient>
    <linearGradient id="paint2_linear_1263_526" x1="6.396" x2="249.9" y1="75.79" y2="75.79" gradientUnits="userSpaceOnUse">
      <stop offset="0"/>
      <stop stop-color="#0A0B09" offset=".5052"/>
      <stop stop-color="#D2D2D2" offset=".9948"/>
    </linearGradient>
  </defs>
</svg>